<svg xmlns="http://www.w3.org/2000/svg" xml:space="preserve" x="0px" y="0px" style="enable-background:new 0 0 193.6 43.4" viewBox="0 0 193.6 43.4"><g style="fill:#f7a7bb"><path d="M24.3 30.8H13.8V12.3h9.7c.4 0 .7 0 1.1.1.4.1.7.2 1.1.4.4.2.7.4 1 .6.3.2.6.5.8.7.4.5.7 1 .9 1.6.2.6.3 1.2.3 1.8 0 .7-.1 1.4-.4 2.1-.3.7-.7 1.3-1.2 1.7.4.2.7.5 1 .8.3.3.5.7.8 1.1.2.4.4.8.5 1.2.1.4.2.8.2 1.2 0 .7-.1 1.4-.4 2-.3.6-.6 1.2-1.1 1.6-.5.5-1 .9-1.6 1.1-.8.4-1.5.6-2.2.5zM22 16h-3.3v3.8H22c1 0 1.9-.9 1.9-1.9 0-1-.9-1.9-1.9-1.9zm.2 7.2h-3.5V27h3.5c1 0 1.9-.8 1.9-1.9 0-.5-.2-1-.5-1.3-.4-.4-.9-.6-1.4-.6zM34 30.8V12.3h5.1v14h9.8v4.6L34 30.8zM62.9 12.3h-4.4l-6.9 18.5h5.3l3.8-11.7 3.8 11.7h5.2zM75.2 30.4c-1.4-.7-2.6-1.6-3.5-2.8l3.9-3.2c.5.6 1.1 1.1 1.7 1.5.7.4 1.4.5 2.1.5.6 0 1.3-.1 1.9-.4.6-.3 1.1-.6 1.5-1.1.4-.4.8-1 1-1.5.2-.6.4-1.2.4-1.9 0-.6-.1-1.2-.4-1.8-.2-.6-.6-1.1-1-1.5-.4-.4-.9-.8-1.5-1.1-.6-.3-1.2-.4-1.9-.4-1.1 0-2.1.4-2.9 1l-3.8-3.3c.9-.8 2-1.5 3.2-2 1.1-.5 2.4-.7 3.6-.7 1.3 0 2.6.3 3.8.8 1.2.5 2.2 1.2 3.1 2.1.9.9 1.6 2 2.1 3.1 1 2.4 1 5.2 0 7.6-.5 1.2-1.2 2.2-2.1 3.1-.9.9-1.9 1.6-3.1 2.1-1.2.5-2.5.8-3.8.8-1.5.1-3-.2-4.3-.9zM101.4 21.1l7.3 9.8h-6l-5.1-6.2v6.2h-5.1V12.3h5.1v6.2l5.1-6.2h6.3l-7.6 8.8zM121.6 25.1h-3.4v5.8h-5V12.3h8.3c.9 0 1.7.2 2.6.5.8.3 1.5.7 2.2 1.3.6.5 1.1 1.2 1.5 2 .4.8.6 1.6.6 2.5 0 .9-.2 1.8-.6 2.6-.4.8-.9 1.5-1.5 2.1-.6.6-1.4 1.1-2.2 1.4-.7.2-1.6.4-2.5.4zm-.4-8.7h-2.9v4h2.9c.3 0 .6-.1.8-.2.5-.2.9-.6 1.1-1.1.2-.5.2-1.1 0-1.6-.1-.2-.3-.4-.5-.6-.2-.2-.4-.3-.7-.4-.1 0-.4-.1-.7-.1zM132.4 30.8V12.3h5v18.5h-5zM141.7 30.8V12.3h5v10l6.5-10h4.9v18.5h-4.9v-9.9l-6.4 9.9h-5.1zM171.9 21.1l7.3 9.8h-6l-5.1-6.2v6.2H163V12.3h5.1v6.2l5.1-6.2h6.3l-7.6 8.8z"/><path d="M193.6 43.4H0V0h193.6v43.4zM4 39.4h185.6V4H4v35.4z"/></g></svg>